<?xml version="1.0" encoding="UTF-8" standalone="no"?>
<!-- Created with Inkscape (http://www.inkscape.org/) -->

<svg
   xmlns:dc="http://purl.org/dc/elements/1.1/"
   xmlns:cc="http://creativecommons.org/ns#"
   xmlns:rdf="http://www.w3.org/1999/02/22-rdf-syntax-ns#"
   xmlns:svg="http://www.w3.org/2000/svg"
   xmlns="http://www.w3.org/2000/svg"
   xmlns:sodipodi="http://sodipodi.sourceforge.net/DTD/sodipodi-0.dtd"
   xmlns:inkscape="http://www.inkscape.org/namespaces/inkscape"
   width="63.403126mm"
   height="63.370796mm"
   viewBox="0 0 63.403125 63.370796"
   version="1.1"
   id="svg8"
   inkscape:version="0.92.4 (5da689c313, 2019-01-14)"
   sodipodi:docname="osf.svg">
  <defs
     id="defs2" />
  <sodipodi:namedview
     id="base"
     pagecolor="#ffffff"
     bordercolor="#666666"
     borderopacity="1.0"
     inkscape:pageopacity="0.0"
     inkscape:pageshadow="2"
     inkscape:zoom="0.7"
     inkscape:cx="348.77006"
     inkscape:cy="-290.5414"
     inkscape:document-units="mm"
     inkscape:current-layer="layer3"
     showgrid="false"
     fit-margin-top="0"
     fit-margin-left="0"
     fit-margin-right="0"
     fit-margin-bottom="0"
     inkscape:window-width="1920"
     inkscape:window-height="1017"
     inkscape:window-x="-8"
     inkscape:window-y="-8"
     inkscape:window-maximized="1" />
  <metadata
     id="metadata5">
    <rdf:RDF>
      <cc:Work
         rdf:about="">
        <dc:format>image/svg+xml</dc:format>
        <dc:type
           rdf:resource="http://purl.org/dc/dcmitype/StillImage" />
        <dc:title></dc:title>
      </cc:Work>
    </rdf:RDF>
  </metadata>
  <g
     inkscape:label="Layer 1"
     inkscape:groupmode="layer"
     id="layer1"
     style="display:inline"
     transform="translate(-1284.5857,-507.80564)" />
  <g
     inkscape:groupmode="layer"
     id="layer3"
     inkscape:label="Layer 2"
     style="display:inline"
     transform="translate(-1284.5857,-507.80564)">
    <g
       style="display:inline"
       id="g885"
       transform="matrix(0.2577723,0,0,0.2577723,1036.6618,410.61881)">
      <path
         style="fill:#33b8ea;stroke-width:0.08466667"
         d="m 1082.9813,622.74386 c -6.3998,-0.60704 -12.9338,-3.91953 -17.2304,-8.73517 -5.5539,-6.22469 -7.9744,-14.23085 -6.7468,-22.31622 0.8055,-5.30581 3.2204,-10.37098 6.7979,-14.25868 0.3108,-0.33781 0.5652,-0.63143 0.5652,-0.65249 0,-0.0211 -0.2321,-0.45788 -0.5158,-0.9707 -3.4367,-6.21242 -3.5761,-13.90937 -0.3667,-20.24163 3.2985,-6.50805 9.4504,-10.8693 16.656,-11.80785 1.3275,-0.17293 4.2094,-0.17293 5.537,0 8.9355,1.16389 16.2122,7.65841 18.3525,16.37985 0.4554,1.85567 0.5945,3.07949 0.5918,5.207 0,1.05259 -0.051,2.21247 -0.1131,2.667 -0.3369,2.4483 -0.9624,4.57464 -1.9715,6.70213 l -0.4281,0.90246 0.9198,0.9207 c 5.9137,5.91977 8.752,14.09757 7.7777,22.40898 -0.9274,7.9114 -5.2654,14.96101 -11.938,19.40007 -3.1387,2.08812 -6.3548,3.39945 -10.063,4.10304 -2.1493,0.40782 -5.3437,0.52682 -7.8245,0.29151 z m -64.7048,-26.66977 c -1.434,-0.0952 -2.7254,-0.23893 -3.8523,-0.42858 -8.7575,-1.47375 -16.45427,-6.66487 -21.1497,-14.26448 -6.34687,-10.27248 -6.10433,-23.4053 0.6174,-33.43039 3.52935,-5.26383 8.5405,-9.29908 14.4363,-11.62476 3.4283,-1.35237 7.0926,-2.06834 10.7918,-2.1086 0.7925,-0.009 1.4746,-0.0372 1.5158,-0.0635 0.041,-0.0263 0.2796,-0.32017 0.5299,-0.65303 3.4508,-4.58873 8.5399,-7.61402 14.3153,-8.5099 1.5581,-0.2417 4.7389,-0.26417 6.1893,-0.0437 4.7905,0.72799 8.8189,2.67789 12.197,5.90381 3.3834,3.23092 5.6156,7.40798 6.4677,12.1027 0.2062,1.13608 0.2231,1.41085 0.2276,3.683 0.01,2.68997 -0.06,3.31869 -0.5586,5.37634 -1.1772,4.8582 -4.1534,9.31082 -8.2418,12.33073 -1.3521,0.99871 -1.2276,0.80957 -1.2286,1.86569 0,2.42817 -0.6283,5.98469 -1.5271,8.67696 -2.9022,8.69364 -9.4505,15.62289 -17.9877,19.03418 -2.5672,1.0258 -5.5788,1.75473 -8.382,2.02877 -0.9619,0.0941 -3.6605,0.17129 -4.3603,0.12479 z m 129.758,-0.038 c -10.9594,-0.7586 -20.5089,-7.00864 -25.5496,-16.72187 -2.0588,-3.96719 -3.1581,-8.17939 -3.421,-13.10746 l -0.058,-1.08858 -0.5516,-0.39309 c -3.1112,-2.21705 -5.4968,-5.00988 -7.1339,-8.35175 -2.05,-4.18476 -2.72,-8.81719 -1.9385,-13.40447 1.4666,-8.60995 8.012,-15.57564 16.5483,-17.61087 1.8559,-0.4425 2.9068,-0.55792 5.08,-0.55792 2.1731,0 3.224,0.11542 5.08,0.55792 3.2419,0.77296 6.1356,2.19275 8.7206,4.27874 1.051,0.84811 2.7806,2.61148 3.5532,3.6226 0.3202,0.4191 0.6296,0.80195 0.6876,0.85079 0.062,0.0525 0.6845,0.0962 1.5217,0.10687 9.7736,0.1248 19.012,5.0189 24.7323,13.10204 2.6407,3.7315 4.5213,8.31685 5.2345,12.76314 0.5461,3.40464 0.5116,7.318 -0.094,10.64216 -1.59,8.73171 -6.9091,16.38414 -14.5982,21.0017 -3.8439,2.30843 -8.2956,3.77405 -12.8247,4.22229 -1.2985,0.12851 -3.7717,0.17202 -4.989,0.0878 z m 25.8134,-64.88987 c -7.1217,-0.74311 -13.4808,-3.68987 -18.5035,-8.57438 l -1.1519,-1.12016 -0.6996,0.123 c -1.8984,0.33377 -4.7412,0.37342 -6.6501,0.0928 -2.7301,-0.4014 -5.4065,-1.31325 -7.6623,-2.61054 -5.8042,-3.33796 -9.6179,-8.79188 -10.7642,-15.39371 -0.1758,-1.01264 -0.1975,-1.40342 -0.1972,-3.55086 0,-2.59943 0.096,-3.45654 0.6017,-5.41867 1.9728,-7.64752 8.018,-13.68746 15.6447,-15.63123 2.9527,-0.75251 6.2351,-0.88444 9.1127,-0.36627 l 0.9474,0.17058 0.8153,-0.78708 c 4.6009,-4.44178 10.4419,-7.34688 16.7166,-8.31434 3.7517,-0.57844 7.37,-0.49403 11.053,0.25785 11.5552,2.359 20.8728,11.28962 23.752,22.76549 0.7999,3.18847 1.084,7.02082 0.775,10.45634 -0.8757,9.73776 -6.3809,18.48985 -14.8558,23.61763 -3.6958,2.23617 -7.6281,3.58738 -12.2415,4.20638 -1.3288,0.17828 -5.2861,0.22394 -6.6923,0.0772 z m -183.5114,-0.27136 c -2.95015,-0.28914 -4.85772,-0.66897 -7.21925,-1.43748 -6.62841,-2.15707 -12.32705,-6.50065 -16.21197,-12.35695 -2.81743,-4.24713 -4.53762,-9.11669 -4.97713,-14.08942 -0.64151,-7.25825 1.02169,-14.01024 4.91153,-19.93901 4.2994,-6.553 10.78328,-11.15946 18.41135,-13.0803 2.41689,-0.6086 4.7334,-0.88291 7.45613,-0.88291 1.04775,0 2.38125,0.0487 2.96334,0.10831 7.2234,0.7392 13.6951,3.78052 18.8865,8.87551 l 0.7255,0.71204 1.2218,-0.18387 c 1.4458,-0.21758 4.249,-0.2612 5.6245,-0.0875 2.7724,0.35004 5.1628,1.08906 7.5509,2.33441 6.1953,3.23082 10.3962,9.14518 11.467,16.14422 0.2346,1.53335 0.2597,4.48594 0.051,5.95966 -0.9701,6.84112 -4.7863,12.5542 -10.6856,15.99692 -4.333,2.52866 -9.5314,3.4573 -14.6214,2.61196 l -0.829,-0.13768 -0.997,0.96816 c -4.8754,4.73434 -11.2514,7.67082 -18.2669,8.41289 -1.06527,0.11268 -4.5709,0.15829 -5.461,0.0711 z m 46.1857,-55.06736 c -6.31,-0.65084 -12.0811,-4.01078 -15.7294,-9.15764 l -0.5682,-0.80161 -1.4609,-0.0575 c -1.7214,-0.0678 -3.3244,-0.24006 -4.8475,-0.52088 -8.5985,-1.58531 -16.26579,-6.91068 -20.80984,-14.45357 -4.91324,-8.15572 -5.78997,-18.15755 -2.37316,-27.07326 2.37756,-6.20391 6.83046,-11.59478 12.5221,-15.15983 3.7617,-2.35618 7.9063,-3.82569 12.5659,-4.45537 1.6368,-0.2212 5.9856,-0.22101 7.62,3.4e-4 5.9103,0.8004 11.0374,2.97608 15.621,6.62883 1.1627,0.92664 3.6809,3.4363 4.5821,4.56675 3.8618,4.84394 6.1302,10.32151 6.7607,16.32532 0.071,0.67824 0.1295,1.79108 0.1295,2.47298 v 1.23983 l 0.2328,0.20104 c 0.1281,0.11057 0.6139,0.48083 1.0795,0.82279 3.795,2.78679 6.7276,7.04373 7.9664,11.56385 0.6038,2.20294 0.7949,3.64922 0.7959,6.02201 0,3.53592 -0.6804,6.51745 -2.1973,9.60714 -1.0785,2.19675 -2.2948,3.92806 -3.9779,5.66203 -3.4033,3.50608 -7.7382,5.71605 -12.6624,6.45539 -1.022,0.15344 -4.1899,0.22068 -5.2493,0.11141 z m 92.71,0.0314 c -4.3526,-0.38963 -8.3011,-1.9331 -11.7264,-4.58374 -0.9804,-0.7587 -2.7548,-2.50482 -3.561,-3.50432 -2.5616,-3.17567 -4.1445,-6.87207 -4.7052,-10.98783 -0.2132,-1.56458 -0.1935,-4.32856 0.042,-5.88433 0.3733,-2.46796 0.9891,-4.45622 2.0452,-6.604 0.7086,-1.44103 1.6484,-2.92929 2.593,-4.10633 1.2173,-1.51672 3.1499,-3.29138 4.8276,-4.43308 l 0.6045,-0.41142 0.056,-1.23958 c 0.2206,-4.88528 1.1324,-8.64427 3.0628,-12.62726 1.6621,-3.42939 3.5738,-6.09035 6.2662,-8.72204 5.1913,-5.07431 11.6566,-8.0484 18.9527,-8.7183 1.1982,-0.11002 4.1358,-0.11002 5.334,0 7.22,0.66292 13.7159,3.62698 18.8297,8.59199 3.6297,3.52406 6.3011,7.74987 7.8697,12.44882 2.6541,7.9508 1.917,16.91679 -1.994,24.25487 -3.7307,6.99984 -9.9117,12.28031 -17.3394,14.81322 -3.0608,1.04375 -5.8049,1.53047 -9.4751,1.68055 l -1.4317,0.0586 -0.547,0.762 c -2.2587,3.14644 -5.096,5.53169 -8.5039,7.14897 -2.3781,1.12859 -4.6946,1.76387 -7.4198,2.03485 -0.8162,0.0812 -3.0066,0.0976 -3.7798,0.0284 z m -44.9157,-19.13211 c -7.1628,-0.5009 -13.4644,-4.31271 -17.208,-10.40916 -2.7005,-4.39782 -3.7133,-9.74616 -2.8467,-15.03325 l 0.1897,-1.15696 -0.866,-0.907 c -4.0261,-4.21691 -6.8826,-9.77418 -7.9307,-15.4291 -0.4221,-2.27746 -0.4962,-3.13066 -0.5012,-5.77631 -0.01,-3.10521 0.1855,-4.80764 0.8426,-7.493 3.0271,-12.37043 13.5126,-21.70757 26.1537,-23.2895 0.563,-0.0704 1.9951,-0.14957 3.1826,-0.17581 3.9689,-0.0877 6.9838,0.35187 10.5525,1.53853 10.0177,3.33113 17.694,11.67815 20.2271,21.99438 1.1791,4.80199 1.159,10.09389 -0.057,14.9184 -1.3424,5.32782 -4.0426,10.12415 -7.9618,14.14261 l -1.0767,1.10395 0.075,0.33539 c 0.2321,1.0415 0.3572,2.84288 0.3115,4.48405 -0.054,1.92917 -0.1883,2.95148 -0.6184,4.699 -1.7421,7.07864 -7.0262,12.87966 -13.9165,15.27803 -2.6772,0.93187 -5.8337,1.36584 -8.552,1.17575 z"
         id="path891"
         inkscape:connector-curvature="0" />
      <path
         style="fill:#5c595a;stroke-width:0.08466667"
         d="m 1083.0888,622.74938 c -3.4415,-0.34434 -6.655,-1.30338 -9.7286,-2.90345 -2.5889,-1.34773 -4.4502,-2.71583 -6.5804,-4.83675 -0.8209,-0.81723 -1.8049,-1.88203 -2.1867,-2.36622 -3.1851,-4.03889 -5.1346,-8.74961 -5.7147,-13.80932 -0.1517,-1.32362 -0.1758,-4.44303 -0.044,-5.76953 0.4699,-4.74626 2.2452,-9.40648 5.0512,-13.25956 1.0373,-1.42433 2.3221,-2.89958 2.5253,-2.89958 0.051,0 0.3306,0.34424 0.6222,0.76499 2.115,3.05204 4.9223,5.46682 8.2668,7.11098 2.7675,1.36048 5.0989,1.98818 8.2298,2.21574 2.2421,0.16296 4.481,-0.051 6.853,-0.65487 5.393,-1.37299 10.3181,-5.04437 13.1223,-9.78178 0.2733,-0.46172 0.5379,-0.83968 0.5881,-0.83994 0.1523,-8.4e-4 2.2447,2.18449 2.9991,3.13221 6.1972,7.78446 7.629,18.42233 3.7134,27.58928 -3.586,8.39551 -11.3031,14.49748 -20.3062,16.05636 -2.1439,0.3712 -5.1826,0.47431 -7.4102,0.25144 z m -66.1246,-26.76875 c -6.0561,-0.54614 -11.5367,-2.71241 -16.4677,-6.50899 -1.27164,-0.97908 -4.22159,-3.92904 -5.20068,-5.20067 -3.78132,-4.91118 -5.94581,-10.35524 -6.48612,-16.31367 -0.13696,-1.51045 -0.0653,-5.48797 0.12333,-6.84267 0.80583,-5.78814 2.96997,-10.83286 6.61762,-15.42598 0.84189,-1.06012 3.55358,-3.77046 4.63285,-4.63056 4.8096,-3.83288 10.3039,-6.0783 16.3997,-6.7022 1.8903,-0.19348 5.5977,-0.13302 7.2813,0.11874 5.8032,0.86783 10.6939,2.98391 15.2143,6.5828 1.0696,0.85154 3.7797,3.56162 4.6312,4.63122 3.3522,4.21057 5.5278,9.01409 6.4056,14.14304 0.5875,3.43259 0.5668,7.47327 -0.056,10.89261 -1.4862,8.16142 -6.2889,15.47726 -13.199,20.10567 -4.3559,2.91762 -9.033,4.58817 -14.3388,5.12153 -0.8022,0.0806 -4.7568,0.10136 -5.5578,0.0291 z m 129.69,-0.0682 c -11.9502,-1.357 -21.9587,-9.32881 -25.8831,-20.61612 -0.9873,-2.83941 -1.4977,-5.52853 -1.6627,-8.7595 -0.5356,-10.48722 4.3448,-20.472 13.0448,-26.68831 3.9726,-2.83851 8.7297,-4.69782 13.843,-5.41049 1.5297,-0.2132 5.3892,-0.25945 7.0481,-0.0844 6.1628,0.65013 11.5607,2.85392 16.3427,6.6723 1.3777,1.10002 3.6399,3.36123 4.7239,4.72178 3.5179,4.4153 5.7154,9.44891 6.5055,14.90134 0.4852,3.34898 0.3779,7.39125 -0.2834,10.668 -1.9341,9.58448 -8.4174,17.76503 -17.3853,21.93657 -2.6022,1.21042 -5.3876,2.0376 -8.4425,2.50717 -1.232,0.18937 -1.717,0.21795 -4.1064,0.242 -1.9211,0.0193 -3.0105,-0.007 -3.7446,-0.0903 z m 27.6206,-64.73593 c -7.079,-0.58064 -13.8298,-3.64869 -18.9211,-8.59915 -0.7011,-0.68169 -1.0315,-1.05901 -0.9755,-1.11405 0.046,-0.0458 0.5305,-0.20124 1.0754,-0.34549 5.5849,-1.4784 10.2834,-5.0739 13.231,-10.12487 2.825,-4.84078 3.6352,-10.69091 2.2462,-16.21795 -1.0888,-4.33249 -3.6717,-8.43983 -7.1123,-11.3103 -2.4183,-2.01757 -5.4367,-3.58083 -8.4032,-4.35209 -0.4376,-0.11376 -0.7408,-0.23628 -0.7408,-0.29932 0,-0.15285 1.5602,-1.60818 2.7517,-2.56669 1.0748,-0.86466 2.8511,-2.08844 3.9793,-2.74146 1.1025,-0.63816 3.3875,-1.71129 4.6143,-2.16711 6.6262,-2.46185 13.9725,-2.58333 20.6738,-0.34189 9.0528,3.02796 16.3051,10.22985 19.4025,19.26759 1.2299,3.5887 1.7234,6.8245 1.6376,10.73759 -0.024,1.1176 -0.1032,2.50825 -0.1749,3.09033 -1.6214,13.15708 -11.4517,23.8486 -24.394,26.53114 -2.8073,0.58187 -6.0695,0.78506 -8.89,0.55372 z m -183.89597,-0.298 c -3.18486,-0.324 -5.6221,-0.84162 -8.0478,-1.70919 -4.38024,-1.56662 -8.12856,-3.94953 -11.47228,-7.29326 -5.00787,-5.00786 -8.03679,-11.24335 -8.88566,-18.29242 -0.1793,-1.48899 -0.2035,-4.87583 -0.0466,-6.51933 0.60065,-6.2907 3.07027,-12.18189 7.11632,-16.97567 1.01563,-1.20333 3.13207,-3.27193 4.318,-4.22039 5.94304,-4.75303 13.33587,-7.13651 20.91108,-6.7418 7.48521,0.39002 14.03451,3.17681 19.66351,8.36704 0.9706,0.89493 1.2778,1.24162 1.1838,1.33568 -0.021,0.0211 -0.5338,0.16906 -1.1393,0.32878 -1.7463,0.46068 -3.5758,1.21297 -5.1437,2.1152 -4.9913,2.87207 -8.6408,7.58677 -10.15815,13.12318 -1.40307,5.11937 -0.87983,10.54479 1.47805,15.32565 2.7742,5.6251 7.713,9.68866 13.8375,11.38524 0.5082,0.14078 0.9442,0.27621 0.969,0.30093 0.065,0.0654 -0.994,1.12103 -2.0131,2.00581 -3.9693,3.44618 -8.9395,5.89525 -14.06169,6.92888 -1.95869,0.39525 -3.23765,0.51603 -5.75733,0.54366 -1.32715,0.0146 -2.5654,0.011 -2.75167,-0.008 z m 27.43197,-65.13845 c -8.7296,-0.50561 -16.8857,-4.72125 -22.33165,-11.54262 -3.76325,-4.7137 -5.99586,-10.15591 -6.63042,-16.16232 -0.1728,-1.63563 -0.12511,-5.77346 0.0832,-7.22248 0.84388,-5.86895 2.89909,-10.66635 6.5788,-15.35669 0.87856,-1.11987 3.47457,-3.73003 4.60977,-4.6349 5.0452,-4.02156 10.6353,-6.25535 17.0494,-6.81293 1.4462,-0.12572 4.8507,-0.0555 6.2713,0.12933 6.9702,0.90695 13.1123,3.91963 18.0384,8.84784 4.9483,4.95046 7.9198,11.00051 8.8599,18.03902 0.1213,0.90815 0.1524,1.71706 0.1511,3.937 0,3.06939 -0.1028,4.10986 -0.6377,6.56166 -2.6284,12.04644 -12.3996,21.51461 -24.5067,23.74683 -2.395,0.44157 -5.1078,0.61087 -7.5354,0.47026 z m 130.3559,-0.0111 c -8.6636,-0.62305 -16.6134,-4.81055 -22.0316,-11.60505 -3.7352,-4.68398 -5.9927,-10.28073 -6.6024,-16.36858 -0.1332,-1.32973 -0.107,-4.61171 0.049,-6.09316 1.1289,-10.75034 7.6806,-20.04532 17.4296,-24.72794 3.1,-1.48894 6.2568,-2.39264 9.9589,-2.85087 1.3617,-0.16854 5.7624,-0.14103 7.1544,0.0447 5.8959,0.78684 11.0436,2.96247 15.6015,6.5939 1.2819,1.02136 3.6914,3.40933 4.6431,4.60171 3.9262,4.91879 6.2619,10.65792 6.8034,16.71663 0.1273,1.42408 0.1063,4.59005 -0.04,5.969 -0.55,5.1989 -2.2507,9.88796 -5.1282,14.13933 -4.6186,6.82382 -11.705,11.52125 -19.7212,13.07294 -2.595,0.5023 -5.5865,0.6893 -8.1165,0.50736 z m -41.4759,-36.27181 c -0.3767,-1.45546 -0.7635,-2.47432 -1.5427,-4.06316 -2.6893,-5.4835 -7.4242,-9.46319 -13.3938,-11.25734 -1.897,-0.57014 -3.8347,-0.83552 -6.0831,-0.83309 -2.4962,0.003 -4.5073,0.32166 -6.8157,1.08098 -4.8068,1.58111 -9.0538,4.95039 -11.6896,9.27379 -1.001,1.64185 -2.1164,4.25105 -2.4884,5.82109 -0.058,0.24462 -0.1433,0.46824 -0.1898,0.49694 -0.111,0.0686 -0.8092,-0.62303 -1.8633,-1.84576 -5.0822,-5.895 -7.7115,-13.28835 -7.4919,-21.06694 0.2593,-9.18694 4.4476,-17.59414 11.6259,-23.33651 4.5027,-3.60202 9.8526,-5.83553 15.6954,-6.55264 1.4237,-0.17473 4.9114,-0.19884 6.5194,-0.0451 7.2568,0.69397 13.8045,3.77949 18.9649,8.93687 6.9206,6.91651 10.1234,16.60918 8.715,26.37367 -0.8331,5.77572 -3.4029,11.36047 -7.266,15.79034 -0.937,1.07455 -2.1507,2.28601 -2.29,2.2858 -0.098,-1.7e-4 -0.2028,-0.27258 -0.4063,-1.05898 z"
         id="path889"
         inkscape:connector-curvature="0" />
      <path
         style="fill:#373435;stroke-width:0.08466667"
         d="m 1084.3588,622.80498 c -0.4656,-0.0292 -0.7704,-0.0772 -0.6773,-0.10669 0.1105,-0.035 0.045,-0.0571 -0.1876,-0.0635 -0.1963,-0.005 -0.7868,-0.0694 -1.3123,-0.14233 -8.0327,-1.11413 -15.0542,-5.70257 -19.3545,-12.64786 -0.6594,-1.06494 -1.8314,-3.45314 -2.2459,-4.5763 -0.75,-2.03243 -1.2762,-4.22039 -1.5482,-6.43767 -0.1888,-1.53857 -0.1891,-4.63412 -9e-4,-6.17038 0.6022,-4.9065 2.417,-9.40714 5.3461,-13.25762 0.7669,-1.0081 1.8769,-2.27319 2.0242,-2.30697 0.05,-0.0115 0.2499,0.22103 0.4436,0.51683 0.5739,0.87636 1.7048,2.23741 2.6243,3.15849 2.7426,2.74722 6.2557,4.75507 9.9775,5.7025 2.1247,0.54087 2.9109,0.63183 5.461,0.63183 2.5522,0 3.3408,-0.0914 5.461,-0.63289 5.4815,-1.39997 10.183,-4.8763 13.1712,-9.73895 0.4403,-0.71652 0.5399,-0.83043 0.6669,-0.76246 0.2323,0.1243 1.817,1.81311 2.5423,2.70917 2.963,3.66083 4.8793,7.84165 5.6672,12.36412 0.3127,1.79506 0.3804,2.64479 0.3775,4.74134 0,2.22115 -0.1118,3.37908 -0.5013,5.334 -2.0849,10.46591 -10.3683,18.82705 -20.8331,21.02866 -1.1258,0.23683 -2.7317,0.47358 -3.2738,0.48262 -0.277,0.005 -0.319,0.0222 -0.1875,0.0787 0.1225,0.0527 0.039,0.0744 -0.3043,0.0787 -0.2604,0.003 -0.9271,0.0203 -1.4816,0.0378 -0.5545,0.0175 -1.3891,0.008 -1.8548,-0.0212 z m -66.7217,-26.94005 c -9.1808,-0.5868 -17.66277,-5.29902 -23.05355,-12.80758 -6.56028,-9.1375 -7.57942,-21.30621 -2.62907,-31.39153 0.78273,-1.59467 1.29041,-2.46963 2.24798,-3.87435 3.06552,-4.49698 7.16154,-8.0183 12.07714,-10.38258 4.569,-2.19763 9.2159,-3.16241 14.6639,-3.04455 2.6365,0.057 5.6724,0.61369 8.509,1.56017 7.6285,2.54538 14.1053,8.1684 17.7274,15.39058 1.9027,3.7939 2.9388,7.7117 3.2296,12.21254 0.072,1.11567 -0.096,4.46603 -0.2932,5.842 -0.5031,3.51135 -1.4143,6.43331 -2.9834,9.56734 -3.0038,5.99926 -7.7469,10.7345 -13.7767,13.75362 -4.8347,2.42079 -10.2859,3.5216 -15.7191,3.17434 z m 130.9414,0.0341 c -9.3562,-0.49511 -17.6648,-4.90903 -23.241,-12.34671 -3.3475,-4.46495 -5.3292,-9.55835 -5.9794,-15.36799 -0.063,-0.56125 -0.1093,-1.9778 -0.1098,-3.34433 -8e-4,-2.58925 0.089,-3.54566 0.5417,-5.80006 2.431,-12.09211 11.8299,-21.54326 23.9498,-24.08285 2.1268,-0.44564 3.4993,-0.57821 5.9394,-0.57368 2.4308,0.004 3.9514,0.13087 5.9266,0.49252 12.2923,2.25058 22.0632,11.82956 24.5484,24.06607 0.4884,2.4048 0.5503,3.10201 0.5503,6.19433 0,2.96339 -0.055,3.65013 -0.4701,5.842 -2.1312,11.26025 -10.6106,20.55091 -21.6652,23.73792 -3.1746,0.91523 -6.842,1.34941 -9.9907,1.18278 z m 25.4847,-64.89188 c -4.3406,-0.43816 -8.4043,-1.67881 -12.0381,-3.67516 -1.1727,-0.64428 -3.3044,-2.06662 -4.3449,-2.8991 -1.1173,-0.89386 -3.0904,-2.71403 -3.0904,-2.85086 0,-0.0665 0.3504,-0.19844 0.9102,-0.34266 5.2035,-1.34072 9.9785,-4.87341 12.9353,-9.57004 1.6108,-2.55874 2.7584,-5.82608 3.1373,-8.93233 0.1914,-1.56945 0.1295,-4.67637 -0.1225,-6.14296 -0.7858,-4.57383 -2.8802,-8.65122 -6.1058,-11.88684 -2.6368,-2.64497 -6.0478,-4.65181 -9.5431,-5.61471 l -0.9778,-0.26935 0.878,-0.84926 c 3.348,-3.2381 7.8999,-5.85871 12.4774,-7.18346 12.0358,-3.48315 24.8047,0.52609 32.6462,10.25036 0.8645,1.07209 2.0382,2.77823 2.7232,3.95855 0.8754,1.50844 1.9645,3.94596 2.5346,5.67266 0.6366,1.92827 1.2589,4.90298 1.3905,6.64706 0.034,0.4544 0.085,0.72802 0.1176,0.63505 0.096,-0.27223 0.1783,2.34753 0.116,3.66749 -0.032,0.67998 -0.082,1.16924 -0.1108,1.08724 -0.029,-0.082 -0.098,0.31941 -0.1529,0.89204 -0.9933,10.27646 -7.4809,19.61045 -16.87,24.27155 -3.2545,1.61564 -6.1768,2.50672 -9.906,3.02059 -1.1725,0.16156 -5.409,0.23479 -6.604,0.11414 z m -183.8537,-0.298 c -3.03197,-0.30545 -5.64783,-0.88569 -8.15932,-1.80984 -9.45754,-3.4801 -16.7243,-11.55356 -19.17337,-21.30187 -0.35245,-1.40292 -0.70231,-3.41644 -0.78581,-4.5225 -0.0355,-0.46973 -0.0844,-0.72976 -0.11891,-0.63167 -0.0322,0.0917 -0.0864,-0.42839 -0.12026,-1.15575 -0.0675,-1.44811 0.0207,-4.03238 0.1282,-3.75701 0.0484,0.1241 0.0675,0.0743 0.0718,-0.1881 0.0151,-0.90376 0.40085,-3.20256 0.81394,-4.85008 0.53909,-2.15006 1.12563,-3.76163 2.12578,-5.84072 1.54495,-3.21161 3.4676,-5.90916 6.03595,-8.46864 4.5021,-4.48658 10.27608,-7.4693 16.46715,-8.50658 1.98066,-0.33186 3.04186,-0.41669 5.21246,-0.41669 1.14089,0 2.51249,0.0489 3.048,0.10859 6.12409,0.68298 11.54459,2.89322 16.18229,6.59848 1.2008,0.95939 2.9729,2.62078 2.9307,2.74755 -0.015,0.0457 -0.3119,0.15488 -0.6592,0.24268 -2.8352,0.71677 -5.6625,2.10806 -8.0398,3.95646 -1.0065,0.78254 -2.6874,2.43604 -3.4976,3.44053 -1.4402,1.78569 -2.80279,4.17322 -3.57257,6.25982 -0.40382,1.09464 -0.91592,3.12735 -1.11054,4.40818 -0.19278,1.26869 -0.21892,4.64974 -0.0455,5.88434 0.56924,4.05243 2.16171,7.77884 4.66191,10.90884 1.3647,1.70838 3.1866,3.35794 5.0883,4.60687 1.7521,1.15073 4.6138,2.41576 6.5135,2.87937 0.253,0.0617 0.4739,0.15434 0.4911,0.20582 0.037,0.11132 -1.6304,1.65121 -2.7857,2.57251 -4.4173,3.52255 -9.4179,5.64413 -15.26789,6.47764 -0.89102,0.12695 -5.58262,0.23761 -6.43466,0.15177 z m 27.7707,-65.10737 c -4.9408,-0.36812 -9.1395,-1.55457 -13.0345,-3.68325 -12.05483,-6.58808 -18.28443,-20.17495 -15.40731,-33.60354 1.76239,-8.22569 6.96185,-15.48173 14.22831,-19.85614 3.0455,-1.83336 6.5883,-3.19114 10.0225,-3.84112 2.1885,-0.41423 2.8802,-0.47006 5.842,-0.4715 3.0594,-10e-4 4.0897,0.0939 6.4346,0.59561 6.1755,1.32133 11.8493,4.55429 16.151,9.20298 4.5373,4.90313 7.3196,11.04506 8.0185,17.7008 0.1892,1.80144 0.1937,5.37673 0.01,6.82937 -1.1342,8.90225 -5.6959,16.5221 -12.9597,21.64788 -4.0145,2.8328 -8.7639,4.65735 -13.8604,5.32463 -0.9858,0.12907 -4.4603,0.22754 -5.4436,0.15428 z m 130.1326,0.003 c -0.1397,-0.0195 -0.6731,-0.077 -1.1853,-0.12782 -1.1031,-0.10945 -2.8833,-0.42567 -4.064,-0.72191 -11.0711,-2.77763 -19.7265,-11.46277 -22.4354,-22.51229 -0.6409,-2.61446 -0.8459,-4.36789 -0.8362,-7.15433 0.015,-4.3907 0.6394,-7.74782 2.1724,-11.684 0.4852,-1.2459 1.7632,-3.74451 2.5408,-4.96757 4.9793,-7.83203 12.7972,-12.82124 22.1567,-14.14002 1.5208,-0.21428 6.2686,-0.21428 7.7894,0 7.9531,1.12061 14.8071,4.88744 19.7674,10.86382 6.0142,7.24613 8.3659,16.67205 6.4751,25.95277 -0.8191,4.02021 -2.6336,8.20079 -4.9983,11.51602 -5.1495,7.21935 -12.8267,11.75131 -21.7099,12.81563 -1.0335,0.12382 -5.1073,0.23851 -5.6727,0.1597 z m -41.2266,-35.91383 c -0.8322,-3.59414 -2.958,-7.33397 -5.7631,-10.13911 -3.3865,-3.38653 -7.6443,-5.49104 -12.6156,-6.2356 -0.484,-0.0725 -1.5187,-0.11334 -2.8363,-0.11198 -2.3806,0.002 -3.3279,0.11409 -5.3819,0.6341 -1.6302,0.41272 -2.6455,0.78871 -4.2278,1.56561 -5.1861,2.54636 -9.1641,7.05333 -11.0339,12.50098 -0.1813,0.52827 -0.3774,1.16249 -0.4359,1.40938 -0.061,0.25801 -0.1479,0.43801 -0.2042,0.42333 -0.1547,-0.0403 -1.6211,-1.63114 -2.4039,-2.60788 -0.8977,-1.12023 -2.2955,-3.22257 -2.9742,-4.47356 -1.8456,-3.40148 -3.0038,-7.00963 -3.5375,-11.02044 -0.2172,-1.6325 -0.2165,-5.73553 0,-7.40834 0.7653,-5.87775 2.9166,-10.98797 6.5582,-15.57866 0.9971,-1.25696 3.4713,-3.73767 4.7167,-4.7291 1.1134,-0.88631 3.2216,-2.30102 4.4253,-2.9696 3.4963,-1.9419 8.1323,-3.37974 11.7867,-3.65561 0.4709,-0.0356 0.7321,-0.0846 0.6341,-0.1191 -0.092,-0.0323 0.4284,-0.0864 1.1557,-0.12026 1.4482,-0.0675 4.0324,0.0207 3.757,0.1282 -0.1258,0.0491 -0.082,0.0674 0.1734,0.0719 1.2354,0.0215 4.2449,0.58793 6.163,1.15997 3.8269,1.14139 7.202,2.91651 10.5449,5.54614 1.2139,0.95491 3.5943,3.3438 4.6481,4.66465 4.2785,5.36275 6.5684,11.60378 6.7652,18.43786 0.2391,8.30493 -2.8569,16.29882 -8.5997,22.20383 -0.5774,0.59373 -1.0754,1.0795 -1.1068,1.0795 -0.031,0 -0.1253,-0.29527 -0.2088,-0.65616 z"
         id="path887"
         inkscape:connector-curvature="0" />
    </g>
  </g>
</svg>
